<svg width="96" height="37" viewBox="0 0 96 37" fill="none" xmlns="http://www.w3.org/2000/svg">
<rect y="0.0117188" width="96" height="36" rx="8" fill="#27C278" fill-opacity="0.15"/>
<path d="M32.028 13.6117H33.714L36.768 22.0117H35.214L34.674 20.5237H31.074L30.534 22.0117H28.98L32.028 13.6117ZM31.608 19.0597H34.134L32.868 15.5977L31.608 19.0597ZM43.1887 18.2197V22.0117H41.7247V18.6037C41.7247 18.3677 41.6667 18.1537 41.5507 17.9617C41.4347 17.7657 41.2787 17.6117 41.0827 17.4997C40.8907 17.3837 40.6767 17.3257 40.4407 17.3257C40.2047 17.3257 39.9887 17.3837 39.7927 17.4997C39.6007 17.6117 39.4467 17.7657 39.3307 17.9617C39.2187 18.1537 39.1627 18.3677 39.1627 18.6037V22.0117H37.6987L37.6927 16.0117H39.1567L39.1627 16.5457C39.3667 16.3297 39.6107 16.1597 39.8947 16.0357C40.1787 15.9077 40.4847 15.8437 40.8127 15.8437C41.2487 15.8437 41.6467 15.9517 42.0067 16.1677C42.3667 16.3797 42.6527 16.6657 42.8647 17.0257C43.0807 17.3817 43.1887 17.7797 43.1887 18.2197ZM49.8801 18.2197V22.0117H48.4161V18.6037C48.4161 18.3677 48.3581 18.1537 48.2421 17.9617C48.1261 17.7657 47.9701 17.6117 47.7741 17.4997C47.5821 17.3837 47.3681 17.3257 47.1321 17.3257C46.8961 17.3257 46.6801 17.3837 46.4841 17.4997C46.2921 17.6117 46.1381 17.7657 46.0221 17.9617C45.9101 18.1537 45.8541 18.3677 45.8541 18.6037V22.0117H44.3901L44.3841 16.0117H45.8481L45.8541 16.5457C46.0581 16.3297 46.3021 16.1597 46.5861 16.0357C46.8701 15.9077 47.1761 15.8437 47.5041 15.8437C47.9401 15.8437 48.3381 15.9517 48.6981 16.1677C49.0581 16.3797 49.3441 16.6657 49.5561 17.0257C49.7721 17.3817 49.8801 17.7797 49.8801 18.2197ZM50.8355 19.7917V16.0117H52.2995V19.4077C52.2995 19.6437 52.3575 19.8597 52.4735 20.0557C52.5895 20.2477 52.7435 20.4017 52.9355 20.5177C53.1315 20.6297 53.3455 20.6857 53.5775 20.6857C53.8175 20.6857 54.0335 20.6297 54.2255 20.5177C54.4175 20.4017 54.5715 20.2477 54.6875 20.0557C54.8035 19.8597 54.8615 19.6437 54.8615 19.4077V16.0117H56.3255L56.3315 22.0117H54.8675L54.8615 21.4657C54.6535 21.6817 54.4075 21.8537 54.1235 21.9817C53.8395 22.1057 53.5355 22.1677 53.2115 22.1677C52.7755 22.1677 52.3775 22.0617 52.0175 21.8497C51.6575 21.6337 51.3695 21.3477 51.1535 20.9917C50.9415 20.6317 50.8355 20.2317 50.8355 19.7917ZM61.9628 16.0117H63.4268V22.0117H61.9628L61.8968 21.2677C61.7328 21.5357 61.5148 21.7537 61.2428 21.9217C60.9748 22.0857 60.6568 22.1677 60.2888 22.1677C59.8448 22.1677 59.4288 22.0837 59.0408 21.9157C58.6528 21.7477 58.3108 21.5157 58.0148 21.2197C57.7228 20.9237 57.4928 20.5817 57.3248 20.1937C57.1608 19.8057 57.0788 19.3897 57.0788 18.9457C57.0788 18.5177 57.1568 18.1157 57.3128 17.7397C57.4728 17.3637 57.6948 17.0337 57.9788 16.7497C58.2628 16.4657 58.5908 16.2437 58.9628 16.0837C59.3348 15.9237 59.7348 15.8437 60.1628 15.8437C60.5588 15.8437 60.9128 15.9317 61.2248 16.1077C61.5408 16.2837 61.8088 16.5077 62.0288 16.7797L61.9628 16.0117ZM60.2528 20.7577C60.5648 20.7577 60.8408 20.6797 61.0808 20.5237C61.3208 20.3677 61.5088 20.1577 61.6448 19.8937C61.7808 19.6257 61.8488 19.3317 61.8488 19.0117C61.8488 18.6877 61.7808 18.3937 61.6448 18.1297C61.5088 17.8617 61.3188 17.6497 61.0748 17.4937C60.8348 17.3377 60.5608 17.2597 60.2528 17.2597C59.9448 17.2597 59.6628 17.3397 59.4068 17.4997C59.1548 17.6557 58.9528 17.8657 58.8008 18.1297C58.6528 18.3937 58.5788 18.6877 58.5788 19.0117C58.5788 19.3357 58.6548 19.6297 58.8068 19.8937C58.9588 20.1577 59.1608 20.3677 59.4128 20.5237C59.6688 20.6797 59.9488 20.7577 60.2528 20.7577ZM64.6575 22.0117V13.0117H66.1215V22.0117H64.6575Z" fill="#27C278"/>
</svg>
