<svg width="32" height="33" viewBox="0 0 32 33" fill="none" xmlns="http://www.w3.org/2000/svg">
<g filter="url(#filter0_b_637_10679)">
<rect y="0.5" width="32" height="32" rx="8" fill="#27B9C2" fill-opacity="0.5"/>
<mask id="path-2-inside-1_637_10679" fill="white">
<path d="M18 23.6663H14C10.38 23.6663 8.83334 22.1197 8.83334 18.4997V14.4997C8.83334 10.8797 10.38 9.33301 14 9.33301H15.3333C15.6067 9.33301 15.8333 9.55967 15.8333 9.83301C15.8333 10.1063 15.6067 10.333 15.3333 10.333H14C10.9267 10.333 9.83334 11.4263 9.83334 14.4997V18.4997C9.83334 21.573 10.9267 22.6663 14 22.6663H18C21.0733 22.6663 22.1667 21.573 22.1667 18.4997V17.1663C22.1667 16.893 22.3933 16.6663 22.6667 16.6663C22.94 16.6663 23.1667 16.893 23.1667 17.1663V18.4997C23.1667 22.1197 21.62 23.6663 18 23.6663Z"/>
</mask>
<path d="M18 23.6663H14C10.38 23.6663 8.83334 22.1197 8.83334 18.4997V14.4997C8.83334 10.8797 10.38 9.33301 14 9.33301H15.3333C15.6067 9.33301 15.8333 9.55967 15.8333 9.83301C15.8333 10.1063 15.6067 10.333 15.3333 10.333H14C10.9267 10.333 9.83334 11.4263 9.83334 14.4997V18.4997C9.83334 21.573 10.9267 22.6663 14 22.6663H18C21.0733 22.6663 22.1667 21.573 22.1667 18.4997V17.1663C22.1667 16.893 22.3933 16.6663 22.6667 16.6663C22.94 16.6663 23.1667 16.893 23.1667 17.1663V18.4997C23.1667 22.1197 21.62 23.6663 18 23.6663Z" fill="white"/>
<path d="M18 22.1663H14V25.1663H18V22.1663ZM14 22.1663C12.3622 22.1663 11.5506 21.8106 11.1198 21.3798C10.6891 20.9491 10.3333 20.1375 10.3333 18.4997H7.33334C7.33334 20.4819 7.75096 22.2536 8.99852 23.5012C10.2461 24.7487 12.0178 25.1663 14 25.1663V22.1663ZM10.3333 18.4997V14.4997H7.33334V18.4997H10.3333ZM10.3333 14.4997C10.3333 12.8619 10.6891 12.0503 11.1198 11.6195C11.5506 11.1887 12.3622 10.833 14 10.833V7.83301C12.0178 7.83301 10.2461 8.25063 8.99852 9.49818C7.75096 10.7457 7.33334 12.5175 7.33334 14.4997H10.3333ZM14 10.833H15.3333V7.83301H14V10.833ZM15.3333 10.833C14.7782 10.833 14.3333 10.3881 14.3333 9.83301H17.3333C17.3333 8.73125 16.4351 7.83301 15.3333 7.83301V10.833ZM14.3333 9.83301C14.3333 9.27791 14.7782 8.83301 15.3333 8.83301V11.833C16.4351 11.833 17.3333 10.9348 17.3333 9.83301H14.3333ZM15.3333 8.83301H14V11.833H15.3333V8.83301ZM14 8.83301C12.3575 8.83301 10.7971 9.10955 9.70352 10.2032C8.60989 11.2968 8.33334 12.8572 8.33334 14.4997H11.3333C11.3333 13.0688 11.6035 12.5459 11.8248 12.3245C12.0462 12.1031 12.5692 11.833 14 11.833V8.83301ZM8.33334 14.4997V18.4997H11.3333V14.4997H8.33334ZM8.33334 18.4997C8.33334 20.1422 8.60989 21.7025 9.70352 22.7962C10.7971 23.8898 12.3575 24.1663 14 24.1663V21.1663C12.5692 21.1663 12.0462 20.8962 11.8248 20.6748C11.6035 20.4535 11.3333 19.9305 11.3333 18.4997H8.33334ZM14 24.1663H18V21.1663H14V24.1663ZM18 24.1663C19.6425 24.1663 21.2029 23.8898 22.2965 22.7962C23.3901 21.7025 23.6667 20.1422 23.6667 18.4997H20.6667C20.6667 19.9305 20.3966 20.4535 20.1752 20.6748C19.9538 20.8962 19.4308 21.1663 18 21.1663V24.1663ZM23.6667 18.4997V17.1663H20.6667V18.4997H23.6667ZM23.6667 17.1663C23.6667 17.7214 23.2218 18.1663 22.6667 18.1663V15.1663C21.5649 15.1663 20.6667 16.0646 20.6667 17.1663H23.6667ZM22.6667 18.1663C22.1116 18.1663 21.6667 17.7214 21.6667 17.1663H24.6667C24.6667 16.0646 23.7684 15.1663 22.6667 15.1663V18.1663ZM21.6667 17.1663V18.4997H24.6667V17.1663H21.6667ZM21.6667 18.4997C21.6667 20.1375 21.311 20.9491 20.8802 21.3798C20.4494 21.8106 19.6378 22.1663 18 22.1663V25.1663C19.9822 25.1663 21.7539 24.7487 23.0015 23.5012C24.2491 22.2536 24.6667 20.4819 24.6667 18.4997H21.6667Z" fill="white" mask="url(#path-2-inside-1_637_10679)"/>
<mask id="path-4-inside-2_637_10679" fill="white">
<path d="M13.6667 20.2934C13.26 20.2934 12.8867 20.1467 12.6133 19.88C12.2867 19.5534 12.1467 19.08 12.22 18.58L12.5067 16.5734C12.56 16.1867 12.8133 15.6867 13.0867 15.4134L18.34 10.16C19.6667 8.83337 21.0133 8.83337 22.34 10.16C23.0667 10.8867 23.3933 11.6267 23.3267 12.3667C23.2667 12.9667 22.9467 13.5534 22.34 14.1534L17.0867 19.4067C16.8133 19.68 16.3133 19.9334 15.9267 19.9867L13.92 20.2734C13.8333 20.2934 13.7467 20.2934 13.6667 20.2934ZM19.0467 10.8667L13.7933 16.12C13.6667 16.2467 13.52 16.54 13.4933 16.7134L13.2067 18.72C13.18 18.9134 13.22 19.0734 13.32 19.1734C13.42 19.2734 13.58 19.3134 13.7733 19.2867L15.78 19C15.9533 18.9734 16.2533 18.8267 16.3733 18.7L21.6267 13.4467C22.06 13.0134 22.2867 12.6267 22.32 12.2667C22.36 11.8334 22.1333 11.3734 21.6267 10.86C20.56 9.79337 19.8267 10.0934 19.0467 10.8667Z"/>
</mask>
<path d="M13.6667 20.2934C13.26 20.2934 12.8867 20.1467 12.6133 19.88C12.2867 19.5534 12.1467 19.08 12.22 18.58L12.5067 16.5734C12.56 16.1867 12.8133 15.6867 13.0867 15.4134L18.34 10.16C19.6667 8.83337 21.0133 8.83337 22.34 10.16C23.0667 10.8867 23.3933 11.6267 23.3267 12.3667C23.2667 12.9667 22.9467 13.5534 22.34 14.1534L17.0867 19.4067C16.8133 19.68 16.3133 19.9334 15.9267 19.9867L13.92 20.2734C13.8333 20.2934 13.7467 20.2934 13.6667 20.2934ZM19.0467 10.8667L13.7933 16.12C13.6667 16.2467 13.52 16.54 13.4933 16.7134L13.2067 18.72C13.18 18.9134 13.22 19.0734 13.32 19.1734C13.42 19.2734 13.58 19.3134 13.7733 19.2867L15.78 19C15.9533 18.9734 16.2533 18.8267 16.3733 18.7L21.6267 13.4467C22.06 13.0134 22.2867 12.6267 22.32 12.2667C22.36 11.8334 22.1333 11.3734 21.6267 10.86C20.56 9.79337 19.8267 10.0934 19.0467 10.8667Z" fill="white"/>
<path d="M12.6133 19.88L11.5527 20.9407L11.5592 20.9472L11.5658 20.9537L12.6133 19.88ZM12.22 18.58L13.7041 18.7977L13.7049 18.7922L12.22 18.58ZM12.5067 16.5734L13.9916 16.7855L13.9926 16.7783L12.5067 16.5734ZM13.0867 15.4134L12.026 14.3527H12.026L13.0867 15.4134ZM18.34 10.16L19.4007 11.2207L18.34 10.16ZM23.3267 12.3667L24.8192 12.516L24.82 12.5086L24.8206 12.5013L23.3267 12.3667ZM22.34 14.1534L21.2852 13.0869L21.2793 13.0927L22.34 14.1534ZM17.0867 19.4067L18.1473 20.4674L17.0867 19.4067ZM15.9267 19.9867L15.7217 18.5008L15.7145 18.5018L15.9267 19.9867ZM13.92 20.2734L13.7079 18.7884L13.6448 18.7975L13.5827 18.8118L13.92 20.2734ZM19.0467 10.8667L17.9906 9.80149L17.986 9.80605L19.0467 10.8667ZM13.7933 16.12L14.854 17.1807L13.7933 16.12ZM13.4933 16.7134L12.0108 16.4853L12.0096 16.4933L12.0084 16.5012L13.4933 16.7134ZM13.2067 18.72L11.7217 18.5079L11.7207 18.5151L13.2067 18.72ZM13.7733 19.2867L13.9783 20.7727L13.9855 20.7716L13.7733 19.2867ZM15.78 19L15.9921 20.485L16.0001 20.4838L16.0081 20.4826L15.78 19ZM16.3733 18.7L15.3127 17.6394L15.2983 17.6537L15.2844 17.6684L16.3733 18.7ZM22.32 12.2667L23.8136 12.405L23.8137 12.4046L22.32 12.2667ZM21.6267 10.86L22.6943 9.80631L22.6873 9.79938L21.6267 10.86ZM13.6667 18.7934C13.644 18.7934 13.6355 18.7894 13.6381 18.7904C13.6392 18.7909 13.6423 18.7922 13.6467 18.795C13.6511 18.7979 13.656 18.8017 13.6608 18.8064L11.5658 20.9537C12.1383 21.5122 12.896 21.7934 13.6667 21.7934V18.7934ZM13.674 18.8194C13.6829 18.8283 13.6902 18.838 13.6955 18.847C13.7007 18.8558 13.7027 18.8617 13.7031 18.863C13.704 18.8658 13.6972 18.8452 13.7041 18.7977L10.7359 18.3624C10.603 19.2683 10.8481 20.2361 11.5527 20.9407L13.674 18.8194ZM13.7049 18.7922L13.9916 16.7855L11.0217 16.3612L10.7351 18.3679L13.7049 18.7922ZM13.9926 16.7783C13.9906 16.793 13.9909 16.782 14.003 16.746C14.0144 16.712 14.0318 16.6696 14.0547 16.6238C14.0777 16.5781 14.1017 16.5381 14.1229 16.5073C14.1454 16.4748 14.1556 16.4658 14.1473 16.474L12.026 14.3527C11.5275 14.8513 11.1199 15.6494 11.0207 16.3684L13.9926 16.7783ZM14.1473 16.474L19.4007 11.2207L17.2793 9.09938L12.026 14.3527L14.1473 16.474ZM19.4007 11.2207C19.8965 10.7249 20.2058 10.665 20.34 10.665C20.4742 10.665 20.7835 10.7249 21.2793 11.2207L23.4007 9.09938C22.5698 8.26853 21.5424 7.66504 20.34 7.66504C19.1376 7.66504 18.1102 8.26853 17.2793 9.09938L19.4007 11.2207ZM21.2793 11.2207C21.8116 11.7529 21.8464 12.0802 21.8327 12.2321L24.8206 12.5013C24.9403 11.1733 24.3217 10.0205 23.4007 9.09938L21.2793 11.2207ZM21.8341 12.2175C21.8201 12.3574 21.7383 12.6388 21.2852 13.0869L23.3948 15.2199C24.155 14.468 24.7132 13.576 24.8192 12.516L21.8341 12.2175ZM21.2793 13.0927L16.026 18.346L18.1473 20.4674L23.4007 15.214L21.2793 13.0927ZM16.026 18.346C16.0342 18.3378 16.0252 18.348 15.9927 18.3704C15.962 18.3917 15.9219 18.4157 15.8762 18.4386C15.8304 18.4616 15.788 18.479 15.7541 18.4904C15.7181 18.5025 15.707 18.5028 15.7217 18.5008L16.1316 21.4726C16.8506 21.3735 17.6488 20.9659 18.1473 20.4674L16.026 18.346ZM15.7145 18.5018L13.7079 18.7884L14.1321 21.7583L16.1388 21.4716L15.7145 18.5018ZM13.5827 18.8118C13.6449 18.7974 13.6896 18.7942 13.7027 18.7935C13.7097 18.7931 13.7116 18.7931 13.7052 18.7932C13.6976 18.7933 13.6884 18.7934 13.6667 18.7934V21.7934C13.7239 21.7934 13.9786 21.7993 14.2573 21.735L13.5827 18.8118ZM17.986 9.80605L12.7327 15.0594L14.854 17.1807L20.1073 11.9274L17.986 9.80605ZM12.7327 15.0594C12.5079 15.2842 12.3546 15.5489 12.2662 15.7244C12.1777 15.9001 12.0582 16.1771 12.0108 16.4853L14.9759 16.9415C14.9687 16.9881 14.9603 17.0217 14.9554 17.0396C14.9502 17.0586 14.946 17.0707 14.9442 17.0756C14.9411 17.084 14.9414 17.0822 14.9455 17.0741C14.9496 17.0659 14.9507 17.0651 14.9453 17.0732C14.9422 17.0779 14.9347 17.0889 14.9221 17.1048C14.9101 17.1199 14.8877 17.147 14.854 17.1807L12.7327 15.0594ZM12.0084 16.5012L11.7217 18.5079L14.6916 18.9322L14.9783 16.9255L12.0084 16.5012ZM11.7207 18.5151C11.656 18.9846 11.7123 19.687 12.2593 20.234L14.3807 18.1127C14.7277 18.4597 14.704 18.8421 14.6926 18.925L11.7207 18.5151ZM12.2593 20.234C12.8064 20.781 13.5087 20.8374 13.9783 20.7726L13.5684 17.8008C13.6513 17.7893 14.0336 17.7657 14.3807 18.1127L12.2593 20.234ZM13.9855 20.7716L15.9921 20.485L15.5679 17.5151L13.5612 17.8018L13.9855 20.7716ZM16.0081 20.4826C16.3123 20.4358 16.5888 20.3185 16.7675 20.2292C16.9376 20.1441 17.2246 19.9825 17.4623 19.7317L15.2844 17.6684C15.325 17.6256 15.3586 17.597 15.3776 17.5816C15.3978 17.5653 15.4123 17.5552 15.4192 17.5506C15.4317 17.5422 15.4337 17.542 15.4258 17.5459C15.4184 17.5496 15.416 17.5502 15.4231 17.5476C15.4272 17.5461 15.4385 17.5422 15.4565 17.5373C15.4734 17.5327 15.5061 17.5245 15.5519 17.5175L16.0081 20.4826ZM17.434 19.7607L22.6873 14.5074L20.566 12.386L15.3127 17.6394L17.434 19.7607ZM22.6873 14.5074C23.2122 13.9825 23.7323 13.2835 23.8136 12.405L20.8264 12.1284C20.8344 12.0421 20.86 12.0183 20.8299 12.0696C20.7976 12.1247 20.7221 12.2299 20.566 12.386L22.6873 14.5074ZM23.8137 12.4046C23.9146 11.3106 23.3129 10.4331 22.6942 9.80633L20.5591 11.9137C20.7407 12.0977 20.8109 12.212 20.8329 12.2565C20.8486 12.2884 20.8165 12.2354 20.8264 12.1288L23.8137 12.4046ZM22.6873 9.79938C22.006 9.11805 21.1407 8.5826 20.0909 8.67976C19.1259 8.76908 18.4257 9.3701 17.9906 9.8015L20.1028 11.9319C20.2558 11.7802 20.3562 11.7031 20.4157 11.6665C20.4683 11.6341 20.4462 11.6597 20.3674 11.667C20.2774 11.6753 20.2245 11.65 20.2392 11.657C20.2699 11.6716 20.3787 11.7334 20.566 11.9207L22.6873 9.79938Z" fill="white" mask="url(#path-4-inside-2_637_10679)"/>
<mask id="path-6-inside-3_637_10679" fill="white">
<path d="M21.2333 15.0532C21.1867 15.0532 21.14 15.0465 21.1 15.0332C19.3467 14.5399 17.9533 13.1465 17.46 11.3932C17.3867 11.1265 17.54 10.8532 17.8067 10.7732C18.0733 10.6999 18.3467 10.8532 18.42 11.1199C18.82 12.5399 19.9467 13.6665 21.3667 14.0665C21.6333 14.1399 21.7867 14.4199 21.7133 14.6865C21.6533 14.9132 21.4533 15.0532 21.2333 15.0532Z"/>
</mask>
<path d="M21.2333 15.0532C21.1867 15.0532 21.14 15.0465 21.1 15.0332C19.3467 14.5399 17.9533 13.1465 17.46 11.3932C17.3867 11.1265 17.54 10.8532 17.8067 10.7732C18.0733 10.6999 18.3467 10.8532 18.42 11.1199C18.82 12.5399 19.9467 13.6665 21.3667 14.0665C21.6333 14.1399 21.7867 14.4199 21.7133 14.6865C21.6533 14.9132 21.4533 15.0532 21.2333 15.0532Z" fill="white"/>
<path d="M21.1 15.0332L21.5743 13.6102L21.5405 13.5989L21.5063 13.5893L21.1 15.0332ZM17.46 11.3932L16.0137 11.7909L16.0161 11.7995L17.46 11.3932ZM17.8067 10.7732L17.4089 9.32688L17.3922 9.33147L17.3756 9.33645L17.8067 10.7732ZM18.42 11.1199L16.9737 11.5176L16.9762 11.5266L18.42 11.1199ZM21.3667 14.0665L20.9599 15.5104L20.9689 15.5128L21.3667 14.0665ZM21.7133 14.6865L20.267 14.2888L20.2651 14.2957L20.2633 14.3027L21.7133 14.6865ZM21.2333 13.5532C21.3187 13.5532 21.436 13.564 21.5743 13.6102L20.6256 16.4562C20.844 16.529 21.0546 16.5532 21.2333 16.5532V13.5532ZM21.5063 13.5893C20.2559 13.2375 19.2557 12.2372 18.9039 10.9869L16.0161 11.7995C16.6509 14.0558 18.4374 15.8423 20.6937 16.4771L21.5063 13.5893ZM18.9063 10.9955C19.0526 11.5274 18.7388 12.0596 18.2377 12.2099L17.3756 9.33645C16.3412 9.64677 15.7207 10.7257 16.0137 11.7909L18.9063 10.9955ZM18.2044 12.2195C17.682 12.3631 17.1227 12.0594 16.9737 11.5176L19.8663 10.7221C19.5706 9.64695 18.4646 9.03657 17.4089 9.32688L18.2044 12.2195ZM16.9762 11.5266C17.5178 13.4492 19.0373 14.9687 20.9599 15.5103L21.7734 12.6227C20.856 12.3643 20.1222 11.6305 19.8638 10.7131L16.9762 11.5266ZM20.9689 15.5128C20.4099 15.3591 20.1282 14.7937 20.267 14.2888L23.1596 15.0843C23.4451 14.046 22.8568 12.9206 21.7644 12.6202L20.9689 15.5128ZM20.2633 14.3027C20.3874 13.8336 20.8126 13.5532 21.2333 13.5532V16.5532C22.094 16.5532 22.9192 15.9928 23.1634 15.0704L20.2633 14.3027Z" fill="white" mask="url(#path-6-inside-3_637_10679)"/>
</g>
<defs>
<filter id="filter0_b_637_10679" x="-12" y="-11.5" width="56" height="56" filterUnits="userSpaceOnUse" color-interpolation-filters="sRGB">
<feFlood flood-opacity="0" result="BackgroundImageFix"/>
<feGaussianBlur in="BackgroundImageFix" stdDeviation="6"/>
<feComposite in2="SourceAlpha" operator="in" result="effect1_backgroundBlur_637_10679"/>
<feBlend mode="normal" in="SourceGraphic" in2="effect1_backgroundBlur_637_10679" result="shape"/>
</filter>
</defs>
</svg>
