<svg width="96" height="36" viewBox="0 0 96 36" fill="none" xmlns="http://www.w3.org/2000/svg">
<rect width="96" height="36" rx="8" fill="#92AAAD" fill-opacity="0.15"/>
<path d="M23.34 22.5V12.7H26.84C27.372 12.7 27.8527 12.833 28.282 13.099C28.716 13.365 29.059 13.722 29.311 14.17C29.563 14.618 29.689 15.1103 29.689 15.647C29.689 16.1977 29.5583 16.697 29.297 17.145C29.0403 17.5883 28.695 17.943 28.261 18.209C27.827 18.4703 27.3533 18.601 26.84 18.601H25.048V22.5H23.34ZM25.048 16.893H26.658C26.9007 16.893 27.1223 16.8323 27.323 16.711C27.5237 16.5897 27.6823 16.4263 27.799 16.221C27.9203 16.0157 27.981 15.787 27.981 15.535C27.981 15.2783 27.9203 15.0473 27.799 14.842C27.6823 14.6367 27.5237 14.4733 27.323 14.352C27.1223 14.2307 26.9007 14.17 26.658 14.17H25.048V16.893ZM33.5704 22.682C32.9264 22.682 32.3384 22.5163 31.8064 22.185C31.2791 21.8537 30.8567 21.408 30.5394 20.848C30.2267 20.288 30.0704 19.6697 30.0704 18.993C30.0704 18.4843 30.1614 18.0083 30.3434 17.565C30.5254 17.117 30.7751 16.725 31.0924 16.389C31.4144 16.0483 31.7877 15.7823 32.2124 15.591C32.6371 15.3997 33.0897 15.304 33.5704 15.304C34.1164 15.304 34.6157 15.4207 35.0684 15.654C35.5257 15.8827 35.9131 16.1977 36.2304 16.599C36.5477 17.0003 36.7787 17.4577 36.9234 17.971C37.0681 18.4843 37.1007 19.021 37.0214 19.581H31.9044C31.9697 19.8423 32.0771 20.078 32.2264 20.288C32.3757 20.4933 32.5647 20.659 32.7934 20.785C33.0221 20.9063 33.2811 20.9693 33.5704 20.974C33.8691 20.9787 34.1397 20.9087 34.3824 20.764C34.6297 20.6147 34.8351 20.414 34.9984 20.162L36.7414 20.568C36.4567 21.1887 36.0321 21.6973 35.4674 22.094C34.9027 22.486 34.2704 22.682 33.5704 22.682ZM31.8484 18.3H35.2924C35.2411 18.02 35.1314 17.768 34.9634 17.544C34.8001 17.3153 34.5971 17.1333 34.3544 16.998C34.1117 16.8627 33.8504 16.795 33.5704 16.795C33.2904 16.795 33.0314 16.8627 32.7934 16.998C32.5554 17.1287 32.3524 17.3083 32.1844 17.537C32.0211 17.761 31.9091 18.0153 31.8484 18.3ZM44.5723 18.076V22.5H42.8643V18.524C42.8643 18.2487 42.7966 17.999 42.6613 17.775C42.526 17.5463 42.344 17.3667 42.1153 17.236C41.8913 17.1007 41.6416 17.033 41.3663 17.033C41.091 17.033 40.839 17.1007 40.6103 17.236C40.3863 17.3667 40.2066 17.5463 40.0713 17.775C39.9406 17.999 39.8753 18.2487 39.8753 18.524V22.5H38.1673L38.1603 15.5H39.8683L39.8753 16.123C40.1133 15.871 40.398 15.6727 40.7293 15.528C41.0606 15.3787 41.4176 15.304 41.8003 15.304C42.309 15.304 42.7733 15.43 43.1933 15.682C43.6133 15.9293 43.947 16.263 44.1943 16.683C44.4463 17.0983 44.5723 17.5627 44.5723 18.076ZM51.1222 12H52.8302V22.5H51.1222V21.625C50.8982 21.9377 50.6159 22.192 50.2752 22.388C49.9346 22.584 49.5402 22.682 49.0922 22.682C48.5836 22.682 48.1076 22.5863 47.6642 22.395C47.2209 22.2037 46.8289 21.94 46.4882 21.604C46.1522 21.2633 45.8886 20.8713 45.6972 20.428C45.5059 19.9847 45.4102 19.5087 45.4102 19C45.4102 18.4913 45.5059 18.0153 45.6972 17.572C45.8886 17.1287 46.1522 16.739 46.4882 16.403C46.8289 16.0623 47.2209 15.7963 47.6642 15.605C48.1076 15.4137 48.5836 15.318 49.0922 15.318C49.5402 15.318 49.9346 15.416 50.2752 15.612C50.6159 15.8033 50.8982 16.0577 51.1222 16.375V12ZM49.1132 21.037C49.4772 21.037 49.7992 20.946 50.0792 20.764C50.3592 20.582 50.5786 20.337 50.7372 20.029C50.8959 19.7163 50.9752 19.3733 50.9752 19C50.9752 18.622 50.8959 18.279 50.7372 17.971C50.5786 17.6583 50.3569 17.411 50.0722 17.229C49.7922 17.047 49.4726 16.956 49.1132 16.956C48.7539 16.956 48.4249 17.0493 48.1262 17.236C47.8322 17.418 47.5966 17.663 47.4192 17.971C47.2466 18.279 47.1602 18.622 47.1602 19C47.1602 19.378 47.2489 19.721 47.4262 20.029C47.6036 20.337 47.8392 20.582 48.1332 20.764C48.4319 20.946 48.7586 21.037 49.1132 21.037ZM54.5119 15.5H56.2199V22.5H54.5119V15.5ZM55.3799 14.597C55.1279 14.597 54.9155 14.5153 54.7429 14.352C54.5702 14.184 54.4839 13.974 54.4839 13.722C54.4839 13.4747 54.5702 13.267 54.7429 13.099C54.9155 12.931 55.1255 12.847 55.3729 12.847C55.6202 12.847 55.8279 12.931 55.9959 13.099C56.1685 13.267 56.2549 13.4747 56.2549 13.722C56.2549 13.974 56.1709 14.184 56.0029 14.352C55.8349 14.5153 55.6272 14.597 55.3799 14.597ZM64.2598 18.076V22.5H62.5518V18.524C62.5518 18.2487 62.4841 17.999 62.3488 17.775C62.2135 17.5463 62.0315 17.3667 61.8028 17.236C61.5788 17.1007 61.3291 17.033 61.0538 17.033C60.7785 17.033 60.5265 17.1007 60.2978 17.236C60.0738 17.3667 59.8941 17.5463 59.7588 17.775C59.6281 17.999 59.5628 18.2487 59.5628 18.524V22.5H57.8548L57.8478 15.5H59.5558L59.5628 16.123C59.8008 15.871 60.0855 15.6727 60.4168 15.528C60.7481 15.3787 61.1051 15.304 61.4878 15.304C61.9965 15.304 62.4608 15.43 62.8808 15.682C63.3008 15.9293 63.6345 16.263 63.8818 16.683C64.1338 17.0983 64.2598 17.5627 64.2598 18.076ZM70.7117 15.5H72.4197V22.633C72.4197 23.137 72.3171 23.5943 72.1117 24.005C71.9064 24.4203 71.6264 24.775 71.2717 25.069C70.9171 25.3677 70.5111 25.5963 70.0537 25.755C69.5964 25.9183 69.1157 26 68.6117 26C68.1217 26 67.6504 25.8997 67.1977 25.699C66.7451 25.4983 66.3437 25.223 65.9937 24.873C65.6484 24.5277 65.3847 24.1333 65.2027 23.69L66.7637 22.983C66.8571 23.2397 66.9971 23.4637 67.1837 23.655C67.3751 23.851 67.5944 24.0027 67.8417 24.11C68.0891 24.222 68.3457 24.278 68.6117 24.278C68.8824 24.278 69.1414 24.2407 69.3887 24.166C69.6407 24.0913 69.8671 23.9817 70.0677 23.837C70.2684 23.697 70.4247 23.5243 70.5367 23.319C70.6534 23.1183 70.7117 22.8897 70.7117 22.633V21.646C70.4924 21.954 70.2171 22.2037 69.8857 22.395C69.5544 22.5863 69.1717 22.682 68.7377 22.682C68.2337 22.682 67.7624 22.5863 67.3237 22.395C66.8851 22.2037 66.4977 21.94 66.1617 21.604C65.8304 21.2633 65.5691 20.8713 65.3777 20.428C65.1911 19.9847 65.0977 19.5087 65.0977 19C65.0977 18.4913 65.1911 18.0153 65.3777 17.572C65.5691 17.1287 65.8304 16.739 66.1617 16.403C66.4977 16.0623 66.8851 15.7963 67.3237 15.605C67.7624 15.4137 68.2337 15.318 68.7377 15.318C69.1717 15.318 69.5544 15.4137 69.8857 15.605C70.2171 15.7917 70.4924 16.039 70.7117 16.347V15.5ZM68.7587 21.037C69.1181 21.037 69.4354 20.946 69.7107 20.764C69.9907 20.5773 70.2101 20.33 70.3687 20.022C70.5274 19.7093 70.6067 19.3687 70.6067 19C70.6067 18.6267 70.5251 18.286 70.3617 17.978C70.2031 17.67 69.9837 17.4227 69.7037 17.236C69.4284 17.0493 69.1134 16.956 68.7587 16.956C68.4087 16.956 68.0891 17.0493 67.7997 17.236C67.5104 17.418 67.2794 17.663 67.1067 17.971C66.9341 18.279 66.8477 18.622 66.8477 19C66.8477 19.378 66.9341 19.721 67.1067 20.029C67.2794 20.337 67.5104 20.582 67.7997 20.764C68.0891 20.946 68.4087 21.037 68.7587 21.037Z" fill="#92AAAD"/>
</svg>
