<svg width="96" height="36" viewBox="0 0 96 36" fill="none" xmlns="http://www.w3.org/2000/svg">
<rect width="96" height="36" rx="8" fill="#DC3C3C" fill-opacity="0.15"/>
<path d="M25.34 22.5V12.7H28.588C29.2647 12.7 29.897 12.8283 30.485 13.085C31.0777 13.337 31.598 13.6893 32.046 14.142C32.4987 14.59 32.851 15.1103 33.103 15.703C33.3597 16.291 33.488 16.9233 33.488 17.6C33.488 18.2767 33.3597 18.9113 33.103 19.504C32.851 20.092 32.4987 20.6123 32.046 21.065C31.598 21.513 31.0777 21.8653 30.485 22.122C29.897 22.374 29.2647 22.5 28.588 22.5H25.34ZM27.048 20.792H28.588C29.022 20.792 29.4303 20.7103 29.813 20.547C30.2003 20.379 30.541 20.1503 30.835 19.861C31.129 19.567 31.36 19.2287 31.528 18.846C31.696 18.4587 31.78 18.0433 31.78 17.6C31.78 17.1567 31.696 16.7437 31.528 16.361C31.36 15.9783 31.129 15.64 30.835 15.346C30.541 15.052 30.2027 14.8233 29.82 14.66C29.4373 14.492 29.0267 14.408 28.588 14.408H27.048V20.792ZM37.6075 22.682C36.9635 22.682 36.3755 22.5163 35.8435 22.185C35.3162 21.8537 34.8938 21.408 34.5765 20.848C34.2638 20.288 34.1075 19.6697 34.1075 18.993C34.1075 18.4843 34.1985 18.0083 34.3805 17.565C34.5625 17.117 34.8122 16.725 35.1295 16.389C35.4515 16.0483 35.8248 15.7823 36.2495 15.591C36.6742 15.3997 37.1268 15.304 37.6075 15.304C38.1535 15.304 38.6528 15.4207 39.1055 15.654C39.5628 15.8827 39.9502 16.1977 40.2675 16.599C40.5848 17.0003 40.8158 17.4577 40.9605 17.971C41.1052 18.4843 41.1378 19.021 41.0585 19.581H35.9415C36.0068 19.8423 36.1142 20.078 36.2635 20.288C36.4128 20.4933 36.6018 20.659 36.8305 20.785C37.0592 20.9063 37.3182 20.9693 37.6075 20.974C37.9062 20.9787 38.1768 20.9087 38.4195 20.764C38.6668 20.6147 38.8722 20.414 39.0355 20.162L40.7785 20.568C40.4938 21.1887 40.0692 21.6973 39.5045 22.094C38.9398 22.486 38.3075 22.682 37.6075 22.682ZM35.8855 18.3H39.3295C39.2782 18.02 39.1685 17.768 39.0005 17.544C38.8372 17.3153 38.6342 17.1333 38.3915 16.998C38.1488 16.8627 37.8875 16.795 37.6075 16.795C37.3275 16.795 37.0685 16.8627 36.8305 16.998C36.5925 17.1287 36.3895 17.3083 36.2215 17.537C36.0582 17.761 35.9462 18.0153 35.8855 18.3ZM46.5648 20.393L48.1048 21.226C47.7828 21.6647 47.3791 22.017 46.8938 22.283C46.4084 22.549 45.8788 22.682 45.3048 22.682C44.6608 22.682 44.0728 22.5163 43.5408 22.185C43.0134 21.8537 42.5911 21.4103 42.2738 20.855C41.9611 20.295 41.8048 19.6767 41.8048 19C41.8048 18.4867 41.8958 18.0083 42.0778 17.565C42.2598 17.117 42.5094 16.725 42.8268 16.389C43.1488 16.0483 43.5221 15.7823 43.9468 15.591C44.3714 15.3997 44.8241 15.304 45.3048 15.304C45.8788 15.304 46.4084 15.437 46.8938 15.703C47.3791 15.969 47.7828 16.326 48.1048 16.774L46.5648 17.6C46.4014 17.4133 46.2078 17.2687 45.9838 17.166C45.7644 17.0633 45.5381 17.012 45.3048 17.012C44.9688 17.012 44.6654 17.1053 44.3948 17.292C44.1241 17.474 43.9094 17.7167 43.7508 18.02C43.5921 18.3187 43.5128 18.6453 43.5128 19C43.5128 19.35 43.5921 19.6767 43.7508 19.98C43.9094 20.2787 44.1241 20.519 44.3948 20.701C44.6654 20.883 44.9688 20.974 45.3048 20.974C45.5474 20.974 45.7784 20.9227 45.9978 20.82C46.2171 20.7127 46.4061 20.5703 46.5648 20.393ZM49.1427 22.5V12H50.8507V22.5H49.1427ZM52.5334 15.5H54.2414V22.5H52.5334V15.5ZM53.4014 14.597C53.1494 14.597 52.937 14.5153 52.7644 14.352C52.5917 14.184 52.5054 13.974 52.5054 13.722C52.5054 13.4747 52.5917 13.267 52.7644 13.099C52.937 12.931 53.147 12.847 53.3944 12.847C53.6417 12.847 53.8494 12.931 54.0174 13.099C54.19 13.267 54.2764 13.4747 54.2764 13.722C54.2764 13.974 54.1924 14.184 54.0244 14.352C53.8564 14.5153 53.6487 14.597 53.4014 14.597ZM62.2813 18.076V22.5H60.5733V18.524C60.5733 18.2487 60.5056 17.999 60.3703 17.775C60.235 17.5463 60.053 17.3667 59.8243 17.236C59.6003 17.1007 59.3506 17.033 59.0753 17.033C58.8 17.033 58.548 17.1007 58.3193 17.236C58.0953 17.3667 57.9156 17.5463 57.7803 17.775C57.6496 17.999 57.5843 18.2487 57.5843 18.524V22.5H55.8763L55.8693 15.5H57.5773L57.5843 16.123C57.8223 15.871 58.107 15.6727 58.4383 15.528C58.7696 15.3787 59.1266 15.304 59.5093 15.304C60.018 15.304 60.4823 15.43 60.9023 15.682C61.3223 15.9293 61.656 16.263 61.9033 16.683C62.1553 17.0983 62.2813 17.5627 62.2813 18.076ZM66.6192 22.682C65.9752 22.682 65.3872 22.5163 64.8552 22.185C64.3279 21.8537 63.9056 21.408 63.5882 20.848C63.2756 20.288 63.1192 19.6697 63.1192 18.993C63.1192 18.4843 63.2102 18.0083 63.3922 17.565C63.5742 17.117 63.8239 16.725 64.1412 16.389C64.4632 16.0483 64.8366 15.7823 65.2612 15.591C65.6859 15.3997 66.1386 15.304 66.6192 15.304C67.1652 15.304 67.6646 15.4207 68.1172 15.654C68.5746 15.8827 68.9619 16.1977 69.2792 16.599C69.5966 17.0003 69.8276 17.4577 69.9722 17.971C70.1169 18.4843 70.1496 19.021 70.0702 19.581H64.9532C65.0186 19.8423 65.1259 20.078 65.2752 20.288C65.4246 20.4933 65.6136 20.659 65.8422 20.785C66.0709 20.9063 66.3299 20.9693 66.6192 20.974C66.9179 20.9787 67.1886 20.9087 67.4312 20.764C67.6786 20.6147 67.8839 20.414 68.0472 20.162L69.7902 20.568C69.5056 21.1887 69.0809 21.6973 68.5162 22.094C67.9516 22.486 67.3192 22.682 66.6192 22.682ZM64.8972 18.3H68.3412C68.2899 18.02 68.1802 17.768 68.0122 17.544C67.8489 17.3153 67.6459 17.1333 67.4032 16.998C67.1606 16.8627 66.8992 16.795 66.6192 16.795C66.3392 16.795 66.0802 16.8627 65.8422 16.998C65.6042 17.1287 65.4012 17.3083 65.2332 17.537C65.0699 17.761 64.9579 18.0153 64.8972 18.3Z" fill="#F04F4F"/>
</svg>
