<svg width="96" height="37" viewBox="0 0 96 37" fill="none" xmlns="http://www.w3.org/2000/svg">
<rect y="0.0117188" width="96" height="36" rx="8" fill="#8854F5" fill-opacity="0.15"/>
<path d="M40.244 22.1677C39.78 22.1677 39.334 22.0957 38.906 21.9517C38.482 21.8037 38.11 21.5937 37.79 21.3217C37.47 21.0457 37.24 20.7157 37.1 20.3317L38.474 19.8277C38.53 19.9877 38.644 20.1337 38.816 20.2657C38.988 20.3977 39.198 20.5037 39.446 20.5837C39.694 20.6637 39.96 20.7037 40.244 20.7037C40.536 20.7037 40.808 20.6597 41.06 20.5717C41.316 20.4797 41.522 20.3537 41.678 20.1937C41.834 20.0297 41.912 19.8397 41.912 19.6237C41.912 19.4037 41.83 19.2237 41.666 19.0837C41.502 18.9397 41.292 18.8257 41.036 18.7417C40.78 18.6577 40.516 18.5937 40.244 18.5497C39.648 18.4577 39.114 18.3157 38.642 18.1237C38.17 17.9317 37.796 17.6657 37.52 17.3257C37.248 16.9857 37.112 16.5457 37.112 16.0057C37.112 15.4977 37.258 15.0537 37.55 14.6737C37.842 14.2937 38.226 13.9977 38.702 13.7857C39.178 13.5737 39.692 13.4677 40.244 13.4677C40.704 13.4677 41.148 13.5397 41.576 13.6837C42.004 13.8277 42.378 14.0377 42.698 14.3137C43.022 14.5897 43.254 14.9217 43.394 15.3097L42.014 15.8077C41.958 15.6477 41.844 15.5017 41.672 15.3697C41.5 15.2377 41.29 15.1337 41.042 15.0577C40.794 14.9777 40.528 14.9377 40.244 14.9377C39.96 14.9337 39.69 14.9797 39.434 15.0757C39.182 15.1677 38.976 15.2937 38.816 15.4537C38.656 15.6137 38.576 15.7977 38.576 16.0057C38.576 16.2737 38.65 16.4757 38.798 16.6117C38.95 16.7477 39.152 16.8477 39.404 16.9117C39.656 16.9717 39.936 17.0277 40.244 17.0797C40.804 17.1677 41.322 17.3157 41.798 17.5237C42.274 17.7317 42.656 18.0097 42.944 18.3577C43.232 18.7017 43.376 19.1237 43.376 19.6237C43.376 20.1317 43.232 20.5777 42.944 20.9617C42.656 21.3417 42.274 21.6377 41.798 21.8497C41.322 22.0617 40.804 22.1677 40.244 22.1677ZM44.5677 16.0117H46.0317V22.0117H44.5677V16.0117ZM45.3117 15.2377C45.0957 15.2377 44.9137 15.1677 44.7657 15.0277C44.6177 14.8837 44.5437 14.7037 44.5437 14.4877C44.5437 14.2757 44.6177 14.0977 44.7657 13.9537C44.9137 13.8097 45.0937 13.7377 45.3057 13.7377C45.5177 13.7377 45.6957 13.8097 45.8397 13.9537C45.9877 14.0977 46.0617 14.2757 46.0617 14.4877C46.0617 14.7037 45.9897 14.8837 45.8457 15.0277C45.7017 15.1677 45.5237 15.2377 45.3117 15.2377ZM51.0533 20.2057L52.3733 20.9197C52.0973 21.2957 51.7513 21.5977 51.3353 21.8257C50.9193 22.0537 50.4653 22.1677 49.9733 22.1677C49.4213 22.1677 48.9173 22.0257 48.4613 21.7417C48.0093 21.4577 47.6473 21.0777 47.3753 20.6017C47.1073 20.1217 46.9733 19.5917 46.9733 19.0117C46.9733 18.5717 47.0513 18.1617 47.2073 17.7817C47.3633 17.3977 47.5773 17.0617 47.8493 16.7737C48.1253 16.4817 48.4453 16.2537 48.8093 16.0897C49.1733 15.9257 49.5613 15.8437 49.9733 15.8437C50.4653 15.8437 50.9193 15.9577 51.3353 16.1857C51.7513 16.4137 52.0973 16.7197 52.3733 17.1037L51.0533 17.8117C50.9133 17.6517 50.7473 17.5277 50.5553 17.4397C50.3673 17.3517 50.1733 17.3077 49.9733 17.3077C49.6853 17.3077 49.4253 17.3877 49.1933 17.5477C48.9613 17.7037 48.7773 17.9117 48.6413 18.1717C48.5053 18.4277 48.4373 18.7077 48.4373 19.0117C48.4373 19.3117 48.5053 19.5917 48.6413 19.8517C48.7773 20.1077 48.9613 20.3137 49.1933 20.4697C49.4253 20.6257 49.6853 20.7037 49.9733 20.7037C50.1813 20.7037 50.3793 20.6597 50.5673 20.5717C50.7553 20.4797 50.9173 20.3577 51.0533 20.2057ZM58.621 22.0117H56.935L55.567 19.6537L54.727 20.6557V22.0117H53.263V13.0117H54.727V18.3817L56.713 16.0117H58.627L56.569 18.4657L58.621 22.0117Z" fill="#8854F5"/>
</svg>
