<svg width="24" height="24" viewBox="0 0 24 24" fill="none" xmlns="http://www.w3.org/2000/svg">
<mask id="path-1-inside-1_477_4975" fill="white">
<path d="M19.92 15.8C19.73 15.8 19.54 15.73 19.39 15.58L12.87 9.05999C12.39 8.57999 11.61 8.57999 11.13 9.05999L4.61002 15.58C4.32002 15.87 3.84002 15.87 3.55002 15.58C3.26002 15.29 3.26002 14.81 3.55002 14.52L10.07 7.99999C11.13 6.93999 12.86 6.93999 13.93 7.99999L20.45 14.52C20.74 14.81 20.74 15.29 20.45 15.58C20.3 15.72 20.11 15.8 19.92 15.8Z"/>
</mask>
<path d="M19.92 15.8C19.73 15.8 19.54 15.73 19.39 15.58L12.87 9.05999C12.39 8.57999 11.61 8.57999 11.13 9.05999L4.61002 15.58C4.32002 15.87 3.84002 15.87 3.55002 15.58C3.26002 15.29 3.26002 14.81 3.55002 14.52L10.07 7.99999C11.13 6.93999 12.86 6.93999 13.93 7.99999L20.45 14.52C20.74 14.81 20.74 15.29 20.45 15.58C20.3 15.72 20.11 15.8 19.92 15.8Z" fill="white"/>
<path d="M19.39 15.58L18.3294 16.6406L19.39 15.58ZM12.87 9.05999L13.9307 7.99933V7.99933L12.87 9.05999ZM11.13 9.05999L12.1907 10.1206L11.13 9.05999ZM4.61002 15.58L3.54936 14.5193H3.54936L4.61002 15.58ZM3.55002 14.52L4.61068 15.5806L3.55002 14.52ZM10.07 7.99999L9.00936 6.93933V6.93933L10.07 7.99999ZM13.93 7.99999L14.9907 6.93931L14.9857 6.93436L13.93 7.99999ZM20.45 14.52L19.3894 15.5806L20.45 14.52ZM20.45 15.58L21.4735 16.6766L21.4924 16.6589L21.5107 16.6406L20.45 15.58ZM19.92 14.3C20.1064 14.3 20.3046 14.3732 20.4507 14.5193L18.3294 16.6406C18.7755 17.0868 19.3537 17.3 19.92 17.3V14.3ZM20.4507 14.5193L13.9307 7.99933L11.8094 10.1206L18.3294 16.6406L20.4507 14.5193ZM13.9307 7.99933C12.8649 6.93354 11.1351 6.93354 10.0694 7.99933L12.1907 10.1206C12.0849 10.2264 11.9151 10.2264 11.8094 10.1206L13.9307 7.99933ZM10.0694 7.99933L3.54936 14.5193L5.67068 16.6406L12.1907 10.1206L10.0694 7.99933ZM3.54936 14.5193C3.84515 14.2235 4.31489 14.2235 4.61068 14.5193L2.48936 16.6406C3.36515 17.5164 4.79489 17.5164 5.67068 16.6406L3.54936 14.5193ZM4.61068 14.5193C4.90647 14.8151 4.90647 15.2849 4.61068 15.5806L2.48936 13.4593C1.61357 14.3351 1.61357 15.7649 2.48936 16.6406L4.61068 14.5193ZM4.61068 15.5806L11.1307 9.06065L9.00936 6.93933L2.48936 13.4593L4.61068 15.5806ZM11.1307 9.06065C11.6022 8.58917 12.3862 8.58204 12.8744 9.06561L14.9857 6.93436C13.3338 5.29793 10.6579 5.29081 9.00936 6.93933L11.1307 9.06065ZM12.8694 9.06065L19.3894 15.5806L21.5107 13.4593L14.9907 6.93933L12.8694 9.06065ZM19.3894 15.5806C19.0936 15.2849 19.0936 14.8151 19.3894 14.5193L21.5107 16.6406C22.3865 15.7649 22.3865 14.3351 21.5107 13.4593L19.3894 15.5806ZM19.4265 14.4834C19.5232 14.3932 19.6896 14.3 19.92 14.3V17.3C20.5305 17.3 21.0769 17.0468 21.4735 16.6766L19.4265 14.4834Z" fill="white" mask="url(#path-1-inside-1_477_4975)"/>
</svg>
