<svg width="24" height="24" viewBox="0 0 24 24" fill="none" xmlns="http://www.w3.org/2000/svg">
<mask id="path-1-inside-1_484_8473" fill="white">
<path d="M12 16.8C11.3 16.8 10.6 16.53 10.07 16L3.55 9.48001C3.26 9.19001 3.26 8.71001 3.55 8.42001C3.84 8.13001 4.32 8.13001 4.61 8.42001L11.13 14.94C11.61 15.42 12.39 15.42 12.87 14.94L19.39 8.42001C19.68 8.13001 20.16 8.13001 20.45 8.42001C20.74 8.71001 20.74 9.19001 20.45 9.48001L13.93 16C13.4 16.53 12.7 16.8 12 16.8Z"/>
</mask>
<path d="M12 16.8C11.3 16.8 10.6 16.53 10.07 16L3.55 9.48001C3.26 9.19001 3.26 8.71001 3.55 8.42001C3.84 8.13001 4.32 8.13001 4.61 8.42001L11.13 14.94C11.61 15.42 12.39 15.42 12.87 14.94L19.39 8.42001C19.68 8.13001 20.16 8.13001 20.45 8.42001C20.74 8.71001 20.74 9.19001 20.45 9.48001L13.93 16C13.4 16.53 12.7 16.8 12 16.8Z" fill="#B3B3B3"/>
<path d="M10.07 16L9.00934 17.0607L10.07 16ZM3.55 9.48001L4.61066 8.41935V8.41935L3.55 9.48001ZM4.61 8.42001L3.54934 9.48067L4.61 8.42001ZM11.13 14.94L12.1907 13.8794L11.13 14.94ZM12.87 14.94L13.9307 16.0007V16.0007L12.87 14.94ZM19.39 8.42001L18.3293 7.35935V7.35935L19.39 8.42001ZM20.45 9.48001L19.3893 8.41935V8.41935L20.45 9.48001ZM13.93 16L14.9907 17.0607L13.93 16ZM12 15.3C11.6841 15.3 11.3698 15.1785 11.1307 14.9394L9.00934 17.0607C9.83023 17.8816 10.9159 18.3 12 18.3V15.3ZM11.1307 14.9394L4.61066 8.41935L2.48934 10.5407L9.00934 17.0607L11.1307 14.9394ZM4.61066 8.41935C4.90645 8.71514 4.90645 9.18489 4.61066 9.48067L2.48934 7.35935C1.61356 8.23514 1.61356 9.66489 2.48934 10.5407L4.61066 8.41935ZM4.61066 9.48067C4.31488 9.77646 3.84513 9.77646 3.54934 9.48067L5.67066 7.35935C4.79488 6.48357 3.36513 6.48357 2.48934 7.35935L4.61066 9.48067ZM3.54934 9.48067L10.0693 16.0007L12.1907 13.8794L5.67066 7.35935L3.54934 9.48067ZM10.0693 16.0007C11.1351 17.0665 12.8649 17.0665 13.9307 16.0007L11.8093 13.8794C11.9151 13.7736 12.0849 13.7736 12.1907 13.8794L10.0693 16.0007ZM13.9307 16.0007L20.4507 9.48067L18.3293 7.35935L11.8093 13.8794L13.9307 16.0007ZM20.4507 9.48067C20.1549 9.77646 19.6851 9.77646 19.3893 9.48067L21.5107 7.35935C20.6349 6.48357 19.2051 6.48357 18.3293 7.35935L20.4507 9.48067ZM19.3893 9.48067C19.0936 9.18489 19.0936 8.71514 19.3893 8.41935L21.5107 10.5407C22.3865 9.66489 22.3865 8.23514 21.5107 7.35935L19.3893 9.48067ZM19.3893 8.41935L12.8693 14.9394L14.9907 17.0607L21.5107 10.5407L19.3893 8.41935ZM12.8693 14.9394C12.6302 15.1785 12.3159 15.3 12 15.3V18.3C13.0841 18.3 14.1698 17.8816 14.9907 17.0607L12.8693 14.9394Z" fill="#B3B3B3" mask="url(#path-1-inside-1_484_8473)"/>
</svg>
