<svg width="24" height="25" viewBox="0 0 24 25" fill="none" xmlns="http://www.w3.org/2000/svg">
<mask id="path-1-inside-1_633_10536" fill="white">
<path d="M15 23.25H9C3.57 23.25 1.25 20.93 1.25 15.5V9.5C1.25 4.07 3.57 1.75 9 1.75H15C20.43 1.75 22.75 4.07 22.75 9.5V15.5C22.75 20.93 20.43 23.25 15 23.25ZM9 3.25C4.39 3.25 2.75 4.89 2.75 9.5V15.5C2.75 20.11 4.39 21.75 9 21.75H15C19.61 21.75 21.25 20.11 21.25 15.5V9.5C21.25 4.89 19.61 3.25 15 3.25H9Z"/>
</mask>
<path d="M15 23.25H9C3.57 23.25 1.25 20.93 1.25 15.5V9.5C1.25 4.07 3.57 1.75 9 1.75H15C20.43 1.75 22.75 4.07 22.75 9.5V15.5C22.75 20.93 20.43 23.25 15 23.25ZM9 3.25C4.39 3.25 2.75 4.89 2.75 9.5V15.5C2.75 20.11 4.39 21.75 9 21.75H15C19.61 21.75 21.25 20.11 21.25 15.5V9.5C21.25 4.89 19.61 3.25 15 3.25H9Z" fill="#27B9C2"/>
<path d="M15 21.75H9V24.75H15V21.75ZM9 21.75C6.45719 21.75 4.99977 21.201 4.14941 20.3506C3.29905 19.5002 2.75 18.0428 2.75 15.5H-0.25C-0.25 18.3872 0.360951 20.8048 2.02809 22.4719C3.69523 24.139 6.11281 24.75 9 24.75V21.75ZM2.75 15.5V9.5H-0.25V15.5H2.75ZM2.75 9.5C2.75 6.95719 3.29905 5.49977 4.14941 4.64941C4.99977 3.79905 6.45719 3.25 9 3.25V0.25C6.11281 0.25 3.69523 0.860951 2.02809 2.52809C0.360951 4.19523 -0.25 6.61281 -0.25 9.5H2.75ZM9 3.25H15V0.25H9V3.25ZM15 3.25C17.5428 3.25 19.0002 3.79905 19.8506 4.64941C20.701 5.49977 21.25 6.95719 21.25 9.5H24.25C24.25 6.61281 23.639 4.19523 21.9719 2.52809C20.3048 0.860951 17.8872 0.25 15 0.25V3.25ZM21.25 9.5V15.5H24.25V9.5H21.25ZM21.25 15.5C21.25 18.0428 20.701 19.5002 19.8506 20.3506C19.0002 21.201 17.5428 21.75 15 21.75V24.75C17.8872 24.75 20.3048 24.139 21.9719 22.4719C23.639 20.8048 24.25 18.3872 24.25 15.5H21.25ZM9 1.75C6.58917 1.75 4.50797 2.16321 3.08559 3.58559C1.66321 5.00797 1.25 7.08917 1.25 9.5H4.25C4.25 7.30083 4.65679 6.25703 5.20691 5.70691C5.75703 5.15679 6.80083 4.75 9 4.75V1.75ZM1.25 9.5V15.5H4.25V9.5H1.25ZM1.25 15.5C1.25 17.9108 1.66321 19.992 3.08559 21.4144C4.50797 22.8368 6.58917 23.25 9 23.25V20.25C6.80083 20.25 5.75703 19.8432 5.20691 19.2931C4.65679 18.743 4.25 17.6992 4.25 15.5H1.25ZM9 23.25H15V20.25H9V23.25ZM15 23.25C17.4108 23.25 19.492 22.8368 20.9144 21.4144C22.3368 19.992 22.75 17.9108 22.75 15.5H19.75C19.75 17.6992 19.3432 18.743 18.7931 19.2931C18.243 19.8432 17.1992 20.25 15 20.25V23.25ZM22.75 15.5V9.5H19.75V15.5H22.75ZM22.75 9.5C22.75 7.08917 22.3368 5.00797 20.9144 3.58559C19.492 2.16321 17.4108 1.75 15 1.75V4.75C17.1992 4.75 18.243 5.15679 18.7931 5.70691C19.3432 6.25703 19.75 7.30083 19.75 9.5H22.75ZM15 1.75H9V4.75H15V1.75Z" fill="#27B9C2" mask="url(#path-1-inside-1_633_10536)"/>
<mask id="path-3-inside-2_633_10536" fill="white">
<path d="M10.58 16.0796C10.38 16.0796 10.19 15.9996 10.05 15.8596L7.22 13.0296C6.93 12.7396 6.93 12.2596 7.22 11.9696C7.51 11.6796 7.99 11.6796 8.28 11.9696L10.58 14.2696L15.72 9.12961C16.01 8.83961 16.49 8.83961 16.78 9.12961C17.07 9.41961 17.07 9.89961 16.78 10.1896L11.11 15.8596C10.97 15.9996 10.78 16.0796 10.58 16.0796Z"/>
</mask>
<path d="M10.58 16.0796C10.38 16.0796 10.19 15.9996 10.05 15.8596L7.22 13.0296C6.93 12.7396 6.93 12.2596 7.22 11.9696C7.51 11.6796 7.99 11.6796 8.28 11.9696L10.58 14.2696L15.72 9.12961C16.01 8.83961 16.49 8.83961 16.78 9.12961C17.07 9.41961 17.07 9.89961 16.78 10.1896L11.11 15.8596C10.97 15.9996 10.78 16.0796 10.58 16.0796Z" fill="#27B9C2"/>
<path d="M10.05 15.8596L11.1107 14.7989L10.05 15.8596ZM7.22 13.0296L6.15934 14.0903H6.15934L7.22 13.0296ZM8.28 11.9696L9.34066 10.9089L8.28 11.9696ZM10.58 14.2696L9.51934 15.3303L10.58 16.3909L11.6407 15.3303L10.58 14.2696ZM15.72 9.12961L16.7807 10.1903L15.72 9.12961ZM16.78 10.1896L17.8407 11.2503L16.78 10.1896ZM11.11 15.8596L10.0493 14.7989L11.11 15.8596ZM10.58 14.5796C10.7823 14.5796 10.9726 14.6609 11.1107 14.7989L8.98934 16.9203C9.40744 17.3384 9.97766 17.5796 10.58 17.5796V14.5796ZM11.1107 14.7989L8.28066 11.9689L6.15934 14.0903L8.98934 16.9203L11.1107 14.7989ZM8.28066 11.9689C8.57645 12.2647 8.57645 12.7345 8.28066 13.0303L6.15934 10.9089C5.28356 11.7847 5.28356 13.2145 6.15934 14.0903L8.28066 11.9689ZM8.28066 13.0303C7.98488 13.3261 7.51513 13.3261 7.21934 13.0303L9.34066 10.9089C8.46488 10.0332 7.03513 10.0332 6.15934 10.9089L8.28066 13.0303ZM7.21934 13.0303L9.51934 15.3303L11.6407 13.209L9.34066 10.9089L7.21934 13.0303ZM11.6407 15.3303L16.7807 10.1903L14.6593 8.06895L9.51934 13.2089L11.6407 15.3303ZM16.7807 10.1903C16.4849 10.4861 16.0151 10.4861 15.7193 10.1903L17.8407 8.06895C16.9649 7.19316 15.5351 7.19316 14.6593 8.06895L16.7807 10.1903ZM15.7193 10.1903C15.4236 9.89448 15.4236 9.42474 15.7193 9.12895L17.8407 11.2503C18.7164 10.3745 18.7164 8.94474 17.8407 8.06895L15.7193 10.1903ZM15.7193 9.12895L10.0493 14.7989L12.1707 16.9203L17.8407 11.2503L15.7193 9.12895ZM10.0493 14.7989C10.1874 14.6609 10.3777 14.5796 10.58 14.5796V17.5796C11.1823 17.5796 11.7526 17.3384 12.1707 16.9203L10.0493 14.7989Z" fill="#27B9C2" mask="url(#path-3-inside-2_633_10536)"/>
</svg>
