<svg width="140" height="141" viewBox="0 0 140 141" fill="none" xmlns="http://www.w3.org/2000/svg">
<path d="M62 54.5H78" stroke="#27B9C2" stroke-width="1.5" stroke-linecap="round" stroke-linejoin="round"/>
<path d="M70 62.5V46.5" stroke="#27B9C2" stroke-width="1.5" stroke-linecap="round" stroke-linejoin="round"/>
<path d="M14.7262 85.5V77.1H15.7342V85.5H14.7262ZM17.3587 85.5V79.5H18.3667V80.25C18.5787 79.97 18.8447 79.748 19.1647 79.584C19.4887 79.416 19.8407 79.332 20.2207 79.332C20.6647 79.332 21.0707 79.44 21.4387 79.656C21.8067 79.872 22.0967 80.158 22.3087 80.514C22.5207 80.158 22.8087 79.872 23.1727 79.656C23.5407 79.44 23.9447 79.332 24.3847 79.332C24.8367 79.332 25.2467 79.442 25.6147 79.662C25.9827 79.878 26.2747 80.17 26.4907 80.538C26.7107 80.906 26.8207 81.316 26.8207 81.768V85.5H25.8127V82.008C25.8127 81.712 25.7407 81.438 25.5967 81.186C25.4527 80.934 25.2587 80.732 25.0147 80.58C24.7707 80.428 24.5007 80.352 24.2047 80.352C23.9087 80.352 23.6387 80.424 23.3947 80.568C23.1507 80.708 22.9567 80.904 22.8127 81.156C22.6687 81.404 22.5967 81.688 22.5967 82.008V85.5H21.5887V82.008C21.5887 81.688 21.5167 81.404 21.3727 81.156C21.2287 80.904 21.0327 80.708 20.7847 80.568C20.5407 80.424 20.2707 80.352 19.9747 80.352C19.6827 80.352 19.4127 80.428 19.1647 80.58C18.9207 80.732 18.7267 80.934 18.5827 81.186C18.4387 81.438 18.3667 81.712 18.3667 82.008V85.5H17.3587ZM32.7295 79.5H33.7375V85.5H32.7295L32.6875 84.486C32.4995 84.834 32.2395 85.116 31.9075 85.332C31.5795 85.548 31.1875 85.656 30.7315 85.656C30.2915 85.656 29.8795 85.574 29.4955 85.41C29.1115 85.242 28.7715 85.012 28.4755 84.72C28.1835 84.424 27.9555 84.084 27.7915 83.7C27.6275 83.316 27.5455 82.902 27.5455 82.458C27.5455 82.03 27.6255 81.626 27.7855 81.246C27.9455 80.866 28.1675 80.534 28.4515 80.25C28.7395 79.962 29.0715 79.738 29.4475 79.578C29.8235 79.414 30.2275 79.332 30.6595 79.332C31.1315 79.332 31.5455 79.444 31.9015 79.668C32.2575 79.888 32.5455 80.174 32.7655 80.526L32.7295 79.5ZM30.7135 84.678C31.1095 84.678 31.4515 84.582 31.7395 84.39C32.0315 84.194 32.2555 83.93 32.4115 83.598C32.5715 83.266 32.6515 82.9 32.6515 82.5C32.6515 82.092 32.5715 81.724 32.4115 81.396C32.2515 81.064 32.0255 80.802 31.7335 80.61C31.4455 80.414 31.1055 80.316 30.7135 80.316C30.3175 80.316 29.9575 80.414 29.6335 80.61C29.3095 80.806 29.0515 81.07 28.8595 81.402C28.6715 81.73 28.5775 82.096 28.5775 82.5C28.5775 82.904 28.6755 83.272 28.8715 83.604C29.0675 83.932 29.3275 84.194 29.6515 84.39C29.9755 84.582 30.3295 84.678 30.7135 84.678ZM39.5056 79.5H40.5136V85.692C40.5136 86.088 40.4276 86.456 40.2556 86.796C40.0876 87.14 39.8596 87.438 39.5716 87.69C39.2836 87.946 38.9556 88.144 38.5876 88.284C38.2196 88.428 37.8356 88.5 37.4356 88.5C37.0196 88.5 36.6176 88.406 36.2296 88.218C35.8416 88.034 35.5016 87.786 35.2096 87.474C34.9216 87.166 34.7136 86.82 34.5856 86.436L35.5096 86.016C35.5856 86.292 35.7216 86.54 35.9176 86.76C36.1176 86.984 36.3496 87.16 36.6136 87.288C36.8816 87.42 37.1556 87.486 37.4356 87.486C37.6996 87.486 37.9536 87.44 38.1976 87.348C38.4456 87.256 38.6676 87.128 38.8636 86.964C39.0636 86.804 39.2196 86.614 39.3316 86.394C39.4476 86.178 39.5056 85.944 39.5056 85.692V84.498C39.3016 84.842 39.0316 85.122 38.6956 85.338C38.3636 85.55 37.9756 85.656 37.5316 85.656C37.1076 85.656 36.7096 85.574 36.3376 85.41C35.9656 85.246 35.6396 85.02 35.3596 84.732C35.0796 84.44 34.8596 84.104 34.6996 83.724C34.5396 83.344 34.4596 82.936 34.4596 82.5C34.4596 82.064 34.5396 81.656 34.6996 81.276C34.8596 80.892 35.0796 80.556 35.3596 80.268C35.6396 79.976 35.9656 79.748 36.3376 79.584C36.7096 79.42 37.1076 79.338 37.5316 79.338C37.9756 79.338 38.3636 79.444 38.6956 79.656C39.0316 79.868 39.3016 80.148 39.5056 80.496V79.5ZM37.5376 84.678C37.9256 84.678 38.2616 84.578 38.5456 84.378C38.8336 84.178 39.0556 83.912 39.2116 83.58C39.3676 83.248 39.4456 82.888 39.4456 82.5C39.4456 82.1 39.3656 81.736 39.2056 81.408C39.0496 81.076 38.8276 80.812 38.5396 80.616C38.2556 80.416 37.9216 80.316 37.5376 80.316C37.1616 80.316 36.8176 80.414 36.5056 80.61C36.1936 80.806 35.9456 81.07 35.7616 81.402C35.5816 81.73 35.4916 82.096 35.4916 82.5C35.4916 82.904 35.5836 83.272 35.7676 83.604C35.9556 83.932 36.2036 84.194 36.5116 84.39C36.8236 84.582 37.1656 84.678 37.5376 84.678ZM44.5143 85.656C43.9623 85.656 43.4583 85.514 43.0023 85.23C42.5503 84.946 42.1883 84.566 41.9163 84.09C41.6483 83.61 41.5143 83.08 41.5143 82.5C41.5143 82.06 41.5923 81.65 41.7483 81.27C41.9043 80.886 42.1183 80.55 42.3903 80.262C42.6663 79.97 42.9863 79.742 43.3503 79.578C43.7143 79.414 44.1023 79.332 44.5143 79.332C44.9663 79.332 45.3803 79.424 45.7563 79.608C46.1363 79.788 46.4603 80.04 46.7283 80.364C47.0003 80.688 47.2023 81.064 47.3343 81.492C47.4703 81.92 47.5203 82.378 47.4843 82.866H42.5883C42.6363 83.206 42.7483 83.51 42.9243 83.778C43.1003 84.042 43.3243 84.252 43.5963 84.408C43.8723 84.564 44.1783 84.644 44.5143 84.648C44.8743 84.648 45.2003 84.556 45.4923 84.372C45.7843 84.184 46.0203 83.928 46.2003 83.604L47.2263 83.844C46.9863 84.376 46.6243 84.812 46.1403 85.152C45.6563 85.488 45.1143 85.656 44.5143 85.656ZM42.5583 82.074H46.4703C46.4383 81.738 46.3303 81.432 46.1463 81.156C45.9623 80.876 45.7283 80.652 45.4443 80.484C45.1603 80.316 44.8503 80.232 44.5143 80.232C44.1783 80.232 43.8703 80.314 43.5903 80.478C43.3103 80.642 43.0783 80.864 42.8943 81.144C42.7143 81.42 42.6023 81.73 42.5583 82.074ZM51.4602 85.5V79.5H52.4682V80.25C52.6802 79.97 52.9462 79.748 53.2662 79.584C53.5902 79.416 53.9422 79.332 54.3222 79.332C54.7662 79.332 55.1722 79.44 55.5402 79.656C55.9082 79.872 56.1982 80.158 56.4102 80.514C56.6222 80.158 56.9102 79.872 57.2742 79.656C57.6422 79.44 58.0462 79.332 58.4862 79.332C58.9382 79.332 59.3482 79.442 59.7162 79.662C60.0842 79.878 60.3762 80.17 60.5922 80.538C60.8122 80.906 60.9222 81.316 60.9222 81.768V85.5H59.9142V82.008C59.9142 81.712 59.8422 81.438 59.6982 81.186C59.5542 80.934 59.3602 80.732 59.1162 80.58C58.8722 80.428 58.6022 80.352 58.3062 80.352C58.0102 80.352 57.7402 80.424 57.4962 80.568C57.2522 80.708 57.0582 80.904 56.9142 81.156C56.7702 81.404 56.6982 81.688 56.6982 82.008V85.5H55.6902V82.008C55.6902 81.688 55.6182 81.404 55.4742 81.156C55.3302 80.904 55.1342 80.708 54.8862 80.568C54.6422 80.424 54.3722 80.352 54.0762 80.352C53.7842 80.352 53.5142 80.428 53.2662 80.58C53.0222 80.732 52.8282 80.934 52.6842 81.186C52.5402 81.438 52.4682 81.712 52.4682 82.008V85.5H51.4602ZM61.8843 83.22V79.5H62.8923V82.998C62.8923 83.302 62.9663 83.578 63.1143 83.826C63.2623 84.074 63.4603 84.272 63.7083 84.42C63.9603 84.564 64.2363 84.636 64.5363 84.636C64.8403 84.636 65.1143 84.564 65.3583 84.42C65.6063 84.272 65.8043 84.074 65.9523 83.826C66.1003 83.578 66.1743 83.302 66.1743 82.998V79.5H67.1823L67.1883 85.5H66.1803L66.1743 84.738C65.9623 85.018 65.6943 85.242 65.3703 85.41C65.0463 85.574 64.6963 85.656 64.3203 85.656C63.8723 85.656 63.4623 85.548 63.0903 85.332C62.7223 85.112 62.4283 84.818 62.2083 84.45C61.9923 84.082 61.8843 83.672 61.8843 83.22ZM70.2238 85.614C69.8998 85.602 69.5838 85.542 69.2758 85.434C68.9718 85.322 68.7038 85.172 68.4718 84.984C68.2438 84.792 68.0778 84.572 67.9738 84.324L68.8378 83.952C68.8978 84.088 69.0058 84.216 69.1618 84.336C69.3178 84.456 69.4978 84.552 69.7018 84.624C69.9058 84.696 70.1118 84.732 70.3198 84.732C70.5398 84.732 70.7458 84.698 70.9378 84.63C71.1298 84.562 71.2858 84.462 71.4058 84.33C71.5298 84.194 71.5918 84.032 71.5918 83.844C71.5918 83.644 71.5238 83.488 71.3878 83.376C71.2558 83.26 71.0878 83.17 70.8838 83.106C70.6838 83.038 70.4798 82.974 70.2718 82.914C69.8598 82.81 69.4918 82.686 69.1678 82.542C68.8438 82.394 68.5878 82.208 68.3998 81.984C68.2158 81.756 68.1238 81.466 68.1238 81.114C68.1238 80.742 68.2258 80.42 68.4298 80.148C68.6378 79.876 68.9098 79.666 69.2458 79.518C69.5818 79.37 69.9418 79.296 70.3258 79.296C70.8098 79.296 71.2518 79.4 71.6518 79.608C72.0518 79.816 72.3498 80.098 72.5458 80.454L71.7358 80.928C71.6678 80.784 71.5638 80.658 71.4238 80.55C71.2838 80.438 71.1238 80.35 70.9438 80.286C70.7638 80.222 70.5798 80.188 70.3918 80.184C70.1598 80.176 69.9418 80.206 69.7378 80.274C69.5378 80.342 69.3758 80.446 69.2518 80.586C69.1318 80.722 69.0718 80.892 69.0718 81.096C69.0718 81.296 69.1358 81.448 69.2638 81.552C69.3958 81.656 69.5658 81.74 69.7738 81.804C69.9858 81.864 70.2158 81.934 70.4638 82.014C70.8278 82.13 71.1678 82.264 71.4838 82.416C71.7998 82.568 72.0538 82.758 72.2458 82.986C72.4418 83.214 72.5378 83.496 72.5338 83.832C72.5338 84.2 72.4238 84.522 72.2038 84.798C71.9838 85.07 71.6978 85.278 71.3458 85.422C70.9978 85.566 70.6238 85.63 70.2238 85.614ZM76.6698 80.508H75.3078L75.3018 85.5H74.2938L74.2998 80.508H73.2678V79.5H74.2998L74.2938 77.616H75.3018L75.3078 79.5H76.6698V80.508ZM83.6642 79.332C84.2482 79.332 84.7782 79.474 85.2542 79.758C85.7342 80.042 86.1162 80.424 86.4002 80.904C86.6842 81.38 86.8262 81.91 86.8262 82.494C86.8262 82.93 86.7442 83.34 86.5802 83.724C86.4162 84.104 86.1882 84.44 85.8962 84.732C85.6082 85.02 85.2722 85.246 84.8882 85.41C84.5082 85.574 84.1002 85.656 83.6642 85.656C83.2002 85.656 82.7962 85.548 82.4522 85.332C82.1122 85.112 81.8402 84.826 81.6362 84.474V85.5H80.6282V76.5H81.6362V80.514C81.8402 80.162 82.1122 79.878 82.4522 79.662C82.7962 79.442 83.2002 79.332 83.6642 79.332ZM83.6522 84.672C84.0482 84.672 84.4082 84.574 84.7322 84.378C85.0562 84.182 85.3142 83.92 85.5062 83.592C85.6982 83.26 85.7942 82.894 85.7942 82.494C85.7942 82.086 85.6962 81.718 85.5002 81.39C85.3042 81.058 85.0442 80.796 84.7202 80.604C84.3962 80.408 84.0402 80.31 83.6522 80.31C83.2602 80.31 82.9182 80.408 82.6262 80.604C82.3382 80.8 82.1142 81.064 81.9542 81.396C81.7982 81.728 81.7202 82.094 81.7202 82.494C81.7202 82.898 81.7982 83.266 81.9542 83.598C82.1142 83.926 82.3402 84.188 82.6322 84.384C82.9242 84.576 83.2642 84.672 83.6522 84.672ZM90.4284 85.656C89.8764 85.656 89.3724 85.514 88.9164 85.23C88.4644 84.946 88.1024 84.566 87.8304 84.09C87.5624 83.61 87.4284 83.08 87.4284 82.5C87.4284 82.06 87.5064 81.65 87.6624 81.27C87.8184 80.886 88.0324 80.55 88.3044 80.262C88.5804 79.97 88.9004 79.742 89.2644 79.578C89.6284 79.414 90.0164 79.332 90.4284 79.332C90.8804 79.332 91.2944 79.424 91.6704 79.608C92.0504 79.788 92.3744 80.04 92.6424 80.364C92.9144 80.688 93.1164 81.064 93.2484 81.492C93.3844 81.92 93.4344 82.378 93.3984 82.866H88.5024C88.5504 83.206 88.6624 83.51 88.8384 83.778C89.0144 84.042 89.2384 84.252 89.5104 84.408C89.7864 84.564 90.0924 84.644 90.4284 84.648C90.7884 84.648 91.1144 84.556 91.4064 84.372C91.6984 84.184 91.9344 83.928 92.1144 83.604L93.1404 83.844C92.9004 84.376 92.5384 84.812 92.0544 85.152C91.5704 85.488 91.0284 85.656 90.4284 85.656ZM88.4724 82.074H92.3844C92.3524 81.738 92.2444 81.432 92.0604 81.156C91.8764 80.876 91.6424 80.652 91.3584 80.484C91.0744 80.316 90.7644 80.232 90.4284 80.232C90.0924 80.232 89.7844 80.314 89.5044 80.478C89.2244 80.642 88.9924 80.864 88.8084 81.144C88.6284 81.42 88.5164 81.73 88.4724 82.074ZM100.014 85.656C99.4623 85.656 98.9583 85.514 98.5023 85.23C98.0503 84.946 97.6883 84.566 97.4163 84.09C97.1483 83.61 97.0143 83.08 97.0143 82.5C97.0143 82.06 97.0923 81.65 97.2483 81.27C97.4043 80.886 97.6183 80.55 97.8903 80.262C98.1663 79.97 98.4863 79.742 98.8503 79.578C99.2143 79.414 99.6023 79.332 100.014 79.332C100.466 79.332 100.88 79.424 101.256 79.608C101.636 79.788 101.96 80.04 102.228 80.364C102.5 80.688 102.702 81.064 102.834 81.492C102.97 81.92 103.02 82.378 102.984 82.866H98.0883C98.1363 83.206 98.2483 83.51 98.4243 83.778C98.6003 84.042 98.8243 84.252 99.0963 84.408C99.3723 84.564 99.6783 84.644 100.014 84.648C100.374 84.648 100.7 84.556 100.992 84.372C101.284 84.184 101.52 83.928 101.7 83.604L102.726 83.844C102.486 84.376 102.124 84.812 101.64 85.152C101.156 85.488 100.614 85.656 100.014 85.656ZM98.0583 82.074H101.97C101.938 81.738 101.83 81.432 101.646 81.156C101.462 80.876 101.228 80.652 100.944 80.484C100.66 80.316 100.35 80.232 100.014 80.232C99.6783 80.232 99.3703 80.314 99.0903 80.478C98.8103 80.642 98.5783 80.864 98.3943 81.144C98.2143 81.42 98.1023 81.73 98.0583 82.074ZM106.756 85.668C106.176 85.668 105.646 85.526 105.166 85.242C104.69 84.958 104.31 84.576 104.026 84.096C103.742 83.616 103.6 83.084 103.6 82.5C103.6 82.064 103.682 81.656 103.846 81.276C104.01 80.896 104.236 80.562 104.524 80.274C104.816 79.982 105.152 79.754 105.532 79.59C105.912 79.426 106.32 79.344 106.756 79.344C107.22 79.344 107.622 79.454 107.962 79.674C108.306 79.89 108.58 80.174 108.784 80.526V79.5H109.792V88.5H108.784V84.486C108.58 84.838 108.306 85.124 107.962 85.344C107.622 85.56 107.22 85.668 106.756 85.668ZM106.768 80.322C106.372 80.322 106.012 80.42 105.688 80.616C105.364 80.812 105.106 81.076 104.914 81.408C104.726 81.736 104.632 82.1 104.632 82.5C104.632 82.908 104.728 83.278 104.92 83.61C105.116 83.938 105.376 84.2 105.7 84.396C106.024 84.588 106.38 84.684 106.768 84.684C107.164 84.684 107.506 84.586 107.794 84.39C108.082 84.194 108.304 83.93 108.46 83.598C108.62 83.266 108.7 82.9 108.7 82.5C108.7 82.096 108.62 81.73 108.46 81.402C108.304 81.074 108.08 80.812 107.788 80.616C107.5 80.42 107.16 80.322 106.768 80.322ZM110.892 83.22V79.5H111.9V82.998C111.9 83.302 111.974 83.578 112.122 83.826C112.27 84.074 112.468 84.272 112.716 84.42C112.968 84.564 113.244 84.636 113.544 84.636C113.848 84.636 114.122 84.564 114.366 84.42C114.614 84.272 114.812 84.074 114.96 83.826C115.108 83.578 115.182 83.302 115.182 82.998V79.5H116.19L116.196 85.5H115.188L115.182 84.738C114.97 85.018 114.702 85.242 114.378 85.41C114.054 85.574 113.704 85.656 113.328 85.656C112.88 85.656 112.47 85.548 112.098 85.332C111.73 85.112 111.436 84.818 111.216 84.45C111 84.082 110.892 83.672 110.892 83.22ZM122.167 79.5H123.175V85.5H122.167L122.125 84.486C121.937 84.834 121.677 85.116 121.345 85.332C121.017 85.548 120.625 85.656 120.169 85.656C119.729 85.656 119.317 85.574 118.933 85.41C118.549 85.242 118.209 85.012 117.913 84.72C117.621 84.424 117.393 84.084 117.229 83.7C117.065 83.316 116.983 82.902 116.983 82.458C116.983 82.03 117.063 81.626 117.223 81.246C117.383 80.866 117.605 80.534 117.889 80.25C118.177 79.962 118.509 79.738 118.885 79.578C119.261 79.414 119.665 79.332 120.097 79.332C120.569 79.332 120.983 79.444 121.339 79.668C121.695 79.888 121.983 80.174 122.203 80.526L122.167 79.5ZM120.151 84.678C120.547 84.678 120.889 84.582 121.177 84.39C121.469 84.194 121.693 83.93 121.849 83.598C122.009 83.266 122.089 82.9 122.089 82.5C122.089 82.092 122.009 81.724 121.849 81.396C121.689 81.064 121.463 80.802 121.171 80.61C120.883 80.414 120.543 80.316 120.151 80.316C119.755 80.316 119.395 80.414 119.071 80.61C118.747 80.806 118.489 81.07 118.297 81.402C118.109 81.73 118.015 82.096 118.015 82.5C118.015 82.904 118.113 83.272 118.309 83.604C118.505 83.932 118.765 84.194 119.089 84.39C119.413 84.582 119.767 84.678 120.151 84.678ZM124.445 85.5V76.5H125.453V85.5H124.445ZM45.7089 94.508H44.3469L44.3409 99.5H43.3329L43.3389 94.508H42.3069V93.5H43.3389L43.3329 91.616H44.3409L44.3469 93.5H45.7089V94.508ZM49.2721 99.656C48.7201 99.656 48.2161 99.514 47.7601 99.23C47.3081 98.946 46.9461 98.566 46.6741 98.09C46.4061 97.61 46.2721 97.08 46.2721 96.5C46.2721 96.06 46.3501 95.65 46.5061 95.27C46.6621 94.886 46.8761 94.55 47.1481 94.262C47.4241 93.97 47.7441 93.742 48.1081 93.578C48.4721 93.414 48.8601 93.332 49.2721 93.332C49.8241 93.332 50.3261 93.474 50.7781 93.758C51.2341 94.042 51.5961 94.424 51.8641 94.904C52.1361 95.384 52.2721 95.916 52.2721 96.5C52.2721 96.936 52.1941 97.344 52.0381 97.724C51.8821 98.104 51.6661 98.44 51.3901 98.732C51.1181 99.02 50.8001 99.246 50.4361 99.41C50.0761 99.574 49.6881 99.656 49.2721 99.656ZM49.2721 98.648C49.6481 98.648 49.9861 98.55 50.2861 98.354C50.5901 98.154 50.8281 97.892 51.0001 97.568C51.1761 97.24 51.2641 96.884 51.2641 96.5C51.2641 96.108 51.1741 95.748 50.9941 95.42C50.8181 95.092 50.5801 94.83 50.2801 94.634C49.9801 94.438 49.6441 94.34 49.2721 94.34C48.8961 94.34 48.5581 94.44 48.2581 94.64C47.9581 94.836 47.7201 95.098 47.5441 95.426C47.3681 95.754 47.2801 96.112 47.2801 96.5C47.2801 96.9 47.3701 97.264 47.5501 97.592C47.7301 97.916 47.9721 98.174 48.2761 98.366C48.5801 98.554 48.9121 98.648 49.2721 98.648ZM56.9318 99.5V92.108H55.9898L56.2718 91.1H57.9398V99.5H56.9318ZM62.9885 99.5V97.232H59.3765V96.212L62.7365 91.1H63.9965V96.224H64.8305V97.232H63.9965V99.5H62.9885ZM60.5585 96.212L62.9885 96.224L62.9705 92.516L60.5585 96.212ZM68.7835 99.656C68.2835 99.656 67.8355 99.544 67.4395 99.32C67.0435 99.092 66.7035 98.778 66.4195 98.378C66.1355 97.978 65.9195 97.516 65.7715 96.992C65.6235 96.464 65.5495 95.9 65.5495 95.3C65.5495 94.7 65.6235 94.136 65.7715 93.608C65.9195 93.08 66.1355 92.618 66.4195 92.222C66.7035 91.822 67.0435 91.51 67.4395 91.286C67.8355 91.058 68.2835 90.944 68.7835 90.944C69.2795 90.944 69.7255 91.058 70.1215 91.286C70.5215 91.51 70.8595 91.822 71.1355 92.222C71.4155 92.618 71.6295 93.08 71.7775 93.608C71.9295 94.136 72.0055 94.7 72.0055 95.3C72.0055 95.9 71.9295 96.464 71.7775 96.992C71.6295 97.516 71.4155 97.978 71.1355 98.378C70.8595 98.778 70.5215 99.092 70.1215 99.32C69.7255 99.544 69.2795 99.656 68.7835 99.656ZM68.7835 98.648C69.2835 98.648 69.7015 98.494 70.0375 98.186C70.3775 97.874 70.6315 97.464 70.7995 96.956C70.9675 96.448 71.0515 95.896 71.0515 95.3C71.0515 94.672 70.9635 94.106 70.7875 93.602C70.6155 93.094 70.3595 92.692 70.0195 92.396C69.6835 92.1 69.2715 91.952 68.7835 91.952C68.3995 91.952 68.0635 92.042 67.7755 92.222C67.4915 92.402 67.2555 92.648 67.0675 92.96C66.8795 93.272 66.7375 93.63 66.6415 94.034C66.5495 94.434 66.5035 94.856 66.5035 95.3C66.5035 95.896 66.5895 96.45 66.7615 96.962C66.9335 97.47 67.1875 97.878 67.5235 98.186C67.8635 98.494 68.2835 98.648 68.7835 98.648ZM72.8413 99.5L75.0373 96.488L72.8533 93.488H74.0953L75.6613 95.624L77.2213 93.488H78.4633L76.2793 96.488L78.4753 99.5H77.2333L75.6613 97.34L74.0833 99.5H72.8413ZM80.381 99.5V92.108H79.439L79.721 91.1H81.389V99.5H80.381ZM86.4377 99.5V97.232H82.8257V96.212L86.1857 91.1H87.4457V96.224H88.2797V97.232H87.4457V99.5H86.4377ZM84.0077 96.212L86.4377 96.224L86.4197 92.516L84.0077 96.212ZM92.2327 99.656C91.7327 99.656 91.2847 99.544 90.8887 99.32C90.4927 99.092 90.1527 98.778 89.8687 98.378C89.5847 97.978 89.3687 97.516 89.2207 96.992C89.0727 96.464 88.9987 95.9 88.9987 95.3C88.9987 94.7 89.0727 94.136 89.2207 93.608C89.3687 93.08 89.5847 92.618 89.8687 92.222C90.1527 91.822 90.4927 91.51 90.8887 91.286C91.2847 91.058 91.7327 90.944 92.2327 90.944C92.7287 90.944 93.1747 91.058 93.5707 91.286C93.9707 91.51 94.3087 91.822 94.5847 92.222C94.8647 92.618 95.0787 93.08 95.2267 93.608C95.3787 94.136 95.4547 94.7 95.4547 95.3C95.4547 95.9 95.3787 96.464 95.2267 96.992C95.0787 97.516 94.8647 97.978 94.5847 98.378C94.3087 98.778 93.9707 99.092 93.5707 99.32C93.1747 99.544 92.7287 99.656 92.2327 99.656ZM92.2327 98.648C92.7327 98.648 93.1507 98.494 93.4867 98.186C93.8267 97.874 94.0807 97.464 94.2487 96.956C94.4167 96.448 94.5007 95.896 94.5007 95.3C94.5007 94.672 94.4127 94.106 94.2367 93.602C94.0647 93.094 93.8087 92.692 93.4687 92.396C93.1327 92.1 92.7207 91.952 92.2327 91.952C91.8487 91.952 91.5127 92.042 91.2247 92.222C90.9407 92.402 90.7047 92.648 90.5167 92.96C90.3287 93.272 90.1867 93.63 90.0907 94.034C89.9987 94.434 89.9527 94.856 89.9527 95.3C89.9527 95.896 90.0387 96.45 90.2107 96.962C90.3827 97.47 90.6367 97.878 90.9727 98.186C91.3127 98.494 91.7327 98.648 92.2327 98.648ZM96.8365 99.656C96.6845 99.656 96.5545 99.602 96.4465 99.494C96.3425 99.386 96.2905 99.254 96.2905 99.098C96.2905 98.95 96.3425 98.822 96.4465 98.714C96.5545 98.606 96.6845 98.552 96.8365 98.552C96.9925 98.552 97.1245 98.606 97.2325 98.714C97.3405 98.822 97.3945 98.95 97.3945 99.098C97.3945 99.254 97.3405 99.386 97.2325 99.494C97.1245 99.602 96.9925 99.656 96.8365 99.656Z" fill="#92AAAD"/>
<rect x="0.5" y="1" width="139" height="139" rx="69.5" stroke="#232B2E"/>
</svg>
