<svg width="56" height="56" viewBox="0 0 56 56" fill="none" xmlns="http://www.w3.org/2000/svg">
<rect width="56" height="56" rx="12" fill="#27C278" fill-opacity="0.2"/>
<path d="M25.4267 15.76L16.1867 23.16C15.1467 23.9867 14.48 25.7334 14.7067 27.0401L16.48 37.6533C16.8 39.5467 18.6133 41.0801 20.5333 41.0801H35.4667C37.3733 41.0801 39.2 39.5333 39.52 37.6533L41.2933 27.0401C41.5067 25.7334 40.84 23.9867 39.8133 23.16L30.5733 15.7733C29.1466 14.6266 26.84 14.6266 25.4267 15.76Z" stroke="#27C278" stroke-width="1.5" stroke-linecap="round" stroke-linejoin="round"/>
<path d="M25.1733 31.1734C26.8667 29.56 29.1333 29.56 30.8267 31.1734" stroke="#27C278" stroke-width="1.5" stroke-linecap="round" stroke-linejoin="round"/>
<path d="M33.6533 28.3467C32.9333 27.6401 32.1334 27.0934 31.3067 26.6934C29.1867 25.6801 26.8133 25.6801 24.68 26.6934C23.8533 27.0934 23.0667 27.6401 22.3333 28.3467" stroke="#27C278" stroke-width="1.5" stroke-linecap="round" stroke-linejoin="round"/>
<path d="M27.994 34.6667H28.006" stroke="#27C278" stroke-width="1.5" stroke-linecap="round" stroke-linejoin="round"/>
</svg>
